<svg width="56" height="27" viewBox="0 0 56 27" fill="none" xmlns="http://www.w3.org/2000/svg">
<path d="M12.5 1L16.0535 8.2408L24 9.40904L18.25 15.0421L19.607 23L12.5 19.2408L5.393 23L6.75 15.0421L1 9.40904L8.9465 8.2408L12.5 1Z" stroke="#FFCE1F" stroke-width="2" stroke-linecap="round" stroke-linejoin="round"/>
<path d="M28.828 17.264V15.716L34.876 7.04H37.36V15.482H39.034V17.264H37.36V20H35.344V17.264H28.828ZM35.434 9.128L31.186 15.482H35.434V9.128ZM41.8323 20.126C41.4603 20.126 41.1483 20 40.8963 19.748C40.6443 19.496 40.5183 19.184 40.5183 18.812C40.5183 18.44 40.6443 18.128 40.8963 17.876C41.1483 17.624 41.4603 17.498 41.8323 17.498C42.1923 17.498 42.4983 17.624 42.7503 17.876C43.0023 18.128 43.1283 18.44 43.1283 18.812C43.1283 19.184 43.0023 19.496 42.7503 19.748C42.4983 20 42.1923 20.126 41.8323 20.126ZM47.6321 16.436C47.7521 17.036 48.0101 17.492 48.4061 17.804C48.8021 18.116 49.3361 18.272 50.0081 18.272C50.8601 18.272 51.4841 17.936 51.8801 17.264C52.2761 16.592 52.4741 15.446 52.4741 13.826C52.1861 14.234 51.7781 14.552 51.2501 14.78C50.7341 14.996 50.1701 15.104 49.5581 15.104C48.7781 15.104 48.0701 14.948 47.4341 14.636C46.7981 14.312 46.2941 13.838 45.9221 13.214C45.5621 12.578 45.3821 11.81 45.3821 10.91C45.3821 9.59 45.7661 8.54 46.5341 7.76C47.3141 6.968 48.3821 6.572 49.7381 6.572C51.3701 6.572 52.5281 7.118 53.2121 8.21C53.9081 9.29 54.2561 10.952 54.2561 13.196C54.2561 14.744 54.1241 16.01 53.8601 16.994C53.6081 17.978 53.1641 18.722 52.5281 19.226C51.8921 19.73 51.0101 19.982 49.8821 19.982C48.5981 19.982 47.6081 19.646 46.9121 18.974C46.2161 18.302 45.8261 17.456 45.7421 16.436H47.6321ZM49.9181 13.376C50.6381 13.376 51.2021 13.154 51.6101 12.71C52.0301 12.254 52.2401 11.654 52.2401 10.91C52.2401 10.082 52.0181 9.44 51.5741 8.984C51.1421 8.516 50.5481 8.282 49.7921 8.282C49.0361 8.282 48.4361 8.522 47.9921 9.002C47.5601 9.47 47.3441 10.088 47.3441 10.856C47.3441 11.588 47.5541 12.194 47.9741 12.674C48.4061 13.142 49.0541 13.376 49.9181 13.376Z" fill="black"/>
</svg>
